<?xml version="1.0" encoding="UTF-8"?>
<!DOCTYPE svg PUBLIC "-//W3C//DTD SVG 1.1//EN" "http://www.w3.org/Graphics/SVG/1.1/DTD/svg11.dtd">
<svg xmlns="http://www.w3.org/2000/svg" version="1.1" width="71px" height="73px" style="shape-rendering:geometricPrecision; text-rendering:geometricPrecision; image-rendering:optimizeQuality; fill-rule:evenodd; clip-rule:evenodd" xmlns:xlink="http://www.w3.org/1999/xlink">
<g><path style="opacity:1" fill="#edf5fe" d="M -0.5,-0.5 C 23.1667,-0.5 46.8333,-0.5 70.5,-0.5C 70.5,23.8333 70.5,48.1667 70.5,72.5C 46.8333,72.5 23.1667,72.5 -0.5,72.5C -0.5,48.1667 -0.5,23.8333 -0.5,-0.5 Z"/></g>
<g><path style="opacity:1" fill="#7e85c5" d="M 26.5,17.5 C 26.5,21.1667 26.5,24.8333 26.5,28.5C 26.1667,28.5 25.8333,28.5 25.5,28.5C 24.8333,28.5 24.5,28.1667 24.5,27.5C 25.1667,24.1667 25.8333,20.8333 26.5,17.5 Z"/></g>
<g><path style="opacity:1" fill="#4651ac" d="M 44.5,10.5 C 46.4651,17.7605 47.1318,25.4271 46.5,33.5C 45.8333,33.5 45.5,33.8333 45.5,34.5C 43.5,35.5 41.5,36.5 39.5,37.5C 38.6728,42.9851 38.1728,48.6518 38,54.5C 37.5045,52.5273 37.3379,50.5273 37.5,48.5C 36.1667,48.5 34.8333,48.5 33.5,48.5C 33.6662,54.5092 33.4995,60.5092 33,66.5C 32.8307,54.3263 32.3307,42.3263 31.5,30.5C 29.8333,29.8333 28.1667,29.1667 26.5,28.5C 26.5,24.8333 26.5,21.1667 26.5,17.5C 32.2099,14.6537 38.2099,12.3204 44.5,10.5 Z"/></g>
<g><path style="opacity:1" fill="#8a96ce" d="M 12.5,22.5 C 11.1667,26.8333 11.1667,31.1667 12.5,35.5C 12.5,36.1667 12.1667,36.5 11.5,36.5C 11.1667,36.5 10.8333,36.5 10.5,36.5C 10.1725,31.456 10.5059,26.456 11.5,21.5C 12.1067,21.6236 12.44,21.9569 12.5,22.5 Z"/></g>
<g><path style="opacity:1" fill="#a1a7d7" d="M 44.5,10.5 C 45.209,9.59603 46.209,9.26269 47.5,9.5C 47.1746,17.3516 47.508,25.0182 48.5,32.5C 48.5,33.1667 48.1667,33.5 47.5,33.5C 47.1667,33.5 46.8333,33.5 46.5,33.5C 47.1318,25.4271 46.4651,17.7605 44.5,10.5 Z"/></g>
<g><path style="opacity:1" fill="#47bfd3" d="M 25.5,28.5 C 25.8333,28.5 26.1667,28.5 26.5,28.5C 28.1667,29.1667 29.8333,29.8333 31.5,30.5C 31.5,42.8333 31.5,55.1667 31.5,67.5C 29.5,67.5 27.5,67.5 25.5,67.5C 25.5,60.8333 25.5,54.1667 25.5,47.5C 25.5,41.1667 25.5,34.8333 25.5,28.5 Z"/></g>
<g><path style="opacity:1" fill="#4253ae" d="M 12.5,22.5 C 16.5,24.1667 20.5,25.8333 24.5,27.5C 24.5,28.1667 24.8333,28.5 25.5,28.5C 25.5,34.8333 25.5,41.1667 25.5,47.5C 24.5318,45.3926 24.1984,43.0593 24.5,40.5C 22.8333,40.5 21.1667,40.5 19.5,40.5C 19.7678,42.099 19.4345,43.4324 18.5,44.5C 18.8226,40.774 18.4892,37.1073 17.5,33.5C 16.8933,33.6236 16.56,33.9569 16.5,34.5C 15.1667,34.8333 13.8333,35.1667 12.5,35.5C 11.1667,31.1667 11.1667,26.8333 12.5,22.5 Z"/></g>
<g><path style="opacity:1" fill="#3d59b1" d="M 59.5,44.5 C 57.7162,44.1075 56.0495,43.4408 54.5,42.5C 54.44,41.9569 54.1067,41.6236 53.5,41.5C 52.502,50.1411 52.1686,58.8078 52.5,67.5C 50.8333,67.5 49.1667,67.5 47.5,67.5C 47.5,56.1667 47.5,44.8333 47.5,33.5C 48.1667,33.5 48.5,33.1667 48.5,32.5C 52.1756,31.2459 55.6756,29.5793 59,27.5C 59.4994,33.1569 59.6661,38.8236 59.5,44.5 Z"/></g>
<g><path style="opacity:1" fill="#48c5d5" d="M 45.5,34.5 C 46.4946,45.3206 46.8279,56.3206 46.5,67.5C 44.1667,67.5 41.8333,67.5 39.5,67.5C 39.5,57.5 39.5,47.5 39.5,37.5C 41.5,36.5 43.5,35.5 45.5,34.5 Z"/></g>
<g><path style="opacity:1" fill="#48c4d4" d="M 16.5,34.5 C 17.4946,45.3206 17.8279,56.3206 17.5,67.5C 15.5,67.5 13.5,67.5 11.5,67.5C 11.5,57.1667 11.5,46.8333 11.5,36.5C 12.1667,36.5 12.5,36.1667 12.5,35.5C 13.8333,35.1667 15.1667,34.8333 16.5,34.5 Z"/></g>
<g><path style="opacity:1" fill="#4097c6" d="M 45.5,34.5 C 45.5,33.8333 45.8333,33.5 46.5,33.5C 46.8333,33.5 47.1667,33.5 47.5,33.5C 47.5,44.8333 47.5,56.1667 47.5,67.5C 47.1667,67.5 46.8333,67.5 46.5,67.5C 46.8279,56.3206 46.4946,45.3206 45.5,34.5 Z"/></g>
<g><path style="opacity:1" fill="#4297c6" d="M 9.5,37.5 C 9.5,36.8333 9.83333,36.5 10.5,36.5C 10.8333,36.5 11.1667,36.5 11.5,36.5C 11.5,46.8333 11.5,57.1667 11.5,67.5C 11.1667,67.5 10.8333,67.5 10.5,67.5C 10.8274,57.3194 10.494,47.3194 9.5,37.5 Z"/></g>
<g><path style="opacity:1" fill="#44afce" d="M 16.5,34.5 C 16.56,33.9569 16.8933,33.6236 17.5,33.5C 18.4892,37.1073 18.8226,40.774 18.5,44.5C 18.5,52.1667 18.5,59.8333 18.5,67.5C 18.1667,67.5 17.8333,67.5 17.5,67.5C 17.8279,56.3206 17.4946,45.3206 16.5,34.5 Z"/></g>
<g><path style="opacity:1" fill="#48c3d4" d="M 54.5,42.5 C 56.0495,43.4408 57.7162,44.1075 59.5,44.5C 59.5,44.8333 59.5,45.1667 59.5,45.5C 59.5,52.8333 59.5,60.1667 59.5,67.5C 57.5,67.5 55.5,67.5 53.5,67.5C 53.1739,58.9832 53.5073,50.6499 54.5,42.5 Z"/></g>
<g><path style="opacity:1" fill="#3861b6" d="M 9.5,37.5 C 10.494,47.3194 10.8274,57.3194 10.5,67.5C 8.16667,67.5 5.83333,67.5 3.5,67.5C 3.16836,58.1429 3.50169,48.8096 4.5,39.5C 6.07536,38.5435 7.74203,37.8769 9.5,37.5 Z"/></g>
<g><path style="opacity:1" fill="#376dba" d="M 31.5,30.5 C 32.3307,42.3263 32.8307,54.3263 33,66.5C 33.4995,60.5092 33.6662,54.5092 33.5,48.5C 34.8333,48.5 36.1667,48.5 37.5,48.5C 37.3379,50.5273 37.5045,52.5273 38,54.5C 38.1728,48.6518 38.6728,42.9851 39.5,37.5C 39.5,47.5 39.5,57.5 39.5,67.5C 36.8333,67.5 34.1667,67.5 31.5,67.5C 31.5,55.1667 31.5,42.8333 31.5,30.5 Z"/></g>
<g><path style="opacity:1" fill="#3360b6" d="M 25.5,47.5 C 25.5,54.1667 25.5,60.8333 25.5,67.5C 23.1667,67.5 20.8333,67.5 18.5,67.5C 18.5,59.8333 18.5,52.1667 18.5,44.5C 19.4345,43.4324 19.7678,42.099 19.5,40.5C 21.1667,40.5 22.8333,40.5 24.5,40.5C 24.1984,43.0593 24.5318,45.3926 25.5,47.5 Z"/></g>
<g><path style="opacity:1" fill="#3f9dc8" d="M 54.5,42.5 C 53.5073,50.6499 53.1739,58.9832 53.5,67.5C 53.1667,67.5 52.8333,67.5 52.5,67.5C 52.1686,58.8078 52.502,50.1411 53.5,41.5C 54.1067,41.6236 54.44,41.9569 54.5,42.5 Z"/></g>
<g><path style="opacity:1" fill="#305fb6" d="M 61.5,46.5 C 62.8333,47.1667 64.1667,47.8333 65.5,48.5C 65.5,54.5 65.5,60.5 65.5,66.5C 63.8333,66.5 62.1667,66.5 60.5,66.5C 60.176,59.6457 60.5093,52.979 61.5,46.5 Z"/></g>
<g><path style="opacity:1" fill="#4074be" d="M 59.5,45.5 C 60.4916,45.3284 61.1583,45.6618 61.5,46.5C 60.5093,52.979 60.176,59.6457 60.5,66.5C 62.1667,66.5 63.8333,66.5 65.5,66.5C 65.5,60.5 65.5,54.5 65.5,48.5C 66.4902,54.6446 66.8235,60.9779 66.5,67.5C 64.1667,67.5 61.8333,67.5 59.5,67.5C 59.5,60.1667 59.5,52.8333 59.5,45.5 Z"/></g>
</svg>
